<svg xmlns="http://www.w3.org/2000/svg" version="1.1" xmlns:xlink="http://www.w3.org/1999/xlink" xmlns:svgjs="http://svgjs.com/svgjs" width="1440" height="560" preserveAspectRatio="none" viewBox="0 0 1440 560"><g mask="url(&quot;#SvgjsMask1400&quot;)" fill="none"><rect width="1440" height="560" x="0" y="0" fill="url(#SvgjsLinearGradient1401)"></rect><path d="M 0,214 C 96,199 288,149.4 480,139 C 672,128.6 768,185 960,162 C 1152,139 1344,51.6 1440,24L1440 560L0 560z" fill="rgba(141, 18, 154, 1)"></path><path d="M 0,323 C 72,367.6 216,532.6 360,546 C 504,559.4 576,410.6 720,390 C 864,369.4 936,462 1080,443 C 1224,424 1368,324.6 1440,295L1440 560L0 560z" fill="rgba(255, 192, 203, 1)"></path></g><defs><mask id="SvgjsMask1400"><rect width="1440" height="560" fill="#ffffff"></rect></mask><linearGradient x1="15.28%" y1="-39.29%" x2="84.72%" y2="139.29%" gradientUnits="userSpaceOnUse" id="SvgjsLinearGradient1401"><stop stop-color="#0e2a47" offset="0"></stop><stop stop-color="rgba(255, 255, 255, 0.01)" offset="0"></stop></linearGradient></defs></svg>